<mxfile host="app.diagrams.net" agent="Mozilla/5.0 (Windows NT 10.0; Win64; x64) AppleWebKit/537.36 (KHTML, like Gecko) Chrome/132.0.0.0 Safari/537.36 OPR/117.0.0.0" version="26.2.12">
  <diagram name="Page-1" id="SrCl12wvu-mY8n0KIz9l">
    <mxGraphModel grid="0" page="0" gridSize="10" guides="1" tooltips="1" connect="1" arrows="1" fold="1" pageScale="1" pageWidth="827" pageHeight="1169" math="0" shadow="0">
      <root>
        <mxCell id="0" />
        <mxCell id="1" parent="0" />
        <mxCell id="JD7c7ZAwi3oJU7PRWthG-1" value="CurrentBooking" style="swimlane;fontStyle=1;align=center;verticalAlign=top;childLayout=stackLayout;horizontal=1;startSize=26;horizontalStack=0;resizeParent=1;resizeParentMax=0;resizeLast=0;collapsible=1;marginBottom=0;whiteSpace=wrap;html=1;" vertex="1" parent="1">
          <mxGeometry x="-94" y="392" width="160" height="100" as="geometry" />
        </mxCell>
        <mxCell id="JD7c7ZAwi3oJU7PRWthG-2" value="Booking ID: Boolean" style="text;strokeColor=none;fillColor=none;align=left;verticalAlign=top;spacingLeft=4;spacingRight=4;overflow=hidden;rotatable=0;points=[[0,0.5],[1,0.5]];portConstraint=eastwest;whiteSpace=wrap;html=1;" vertex="1" parent="JD7c7ZAwi3oJU7PRWthG-1">
          <mxGeometry y="26" width="160" height="26" as="geometry" />
        </mxCell>
        <mxCell id="JD7c7ZAwi3oJU7PRWthG-3" value="" style="line;strokeWidth=1;fillColor=none;align=left;verticalAlign=middle;spacingTop=-1;spacingLeft=3;spacingRight=3;rotatable=0;labelPosition=right;points=[];portConstraint=eastwest;strokeColor=inherit;" vertex="1" parent="JD7c7ZAwi3oJU7PRWthG-1">
          <mxGeometry y="52" width="160" height="8" as="geometry" />
        </mxCell>
        <mxCell id="JD7c7ZAwi3oJU7PRWthG-4" value="CreatePreorder: (OrderFood, Deal Specials)" style="text;strokeColor=none;fillColor=none;align=left;verticalAlign=top;spacingLeft=4;spacingRight=4;overflow=hidden;rotatable=0;points=[[0,0.5],[1,0.5]];portConstraint=eastwest;whiteSpace=wrap;html=1;" vertex="1" parent="JD7c7ZAwi3oJU7PRWthG-1">
          <mxGeometry y="60" width="160" height="40" as="geometry" />
        </mxCell>
        <mxCell id="JD7c7ZAwi3oJU7PRWthG-5" value="Regular" style="swimlane;fontStyle=1;align=center;verticalAlign=top;childLayout=stackLayout;horizontal=1;startSize=26;horizontalStack=0;resizeParent=1;resizeParentMax=0;resizeLast=0;collapsible=1;marginBottom=0;whiteSpace=wrap;html=1;" vertex="1" parent="1">
          <mxGeometry x="350" y="392" width="160" height="110" as="geometry" />
        </mxCell>
        <mxCell id="JD7c7ZAwi3oJU7PRWthG-6" value="regularMenu: string" style="text;strokeColor=none;fillColor=none;align=left;verticalAlign=top;spacingLeft=4;spacingRight=4;overflow=hidden;rotatable=0;points=[[0,0.5],[1,0.5]];portConstraint=eastwest;whiteSpace=wrap;html=1;" vertex="1" parent="JD7c7ZAwi3oJU7PRWthG-5">
          <mxGeometry y="26" width="160" height="26" as="geometry" />
        </mxCell>
        <mxCell id="JD7c7ZAwi3oJU7PRWthG-7" value="" style="line;strokeWidth=1;fillColor=none;align=left;verticalAlign=middle;spacingTop=-1;spacingLeft=3;spacingRight=3;rotatable=0;labelPosition=right;points=[];portConstraint=eastwest;strokeColor=inherit;" vertex="1" parent="JD7c7ZAwi3oJU7PRWthG-5">
          <mxGeometry y="52" width="160" height="8" as="geometry" />
        </mxCell>
        <mxCell id="JD7c7ZAwi3oJU7PRWthG-8" value="menuDisplay( starters, mains, sides, extras, desserts): string" style="text;strokeColor=none;fillColor=none;align=left;verticalAlign=top;spacingLeft=4;spacingRight=4;overflow=hidden;rotatable=0;points=[[0,0.5],[1,0.5]];portConstraint=eastwest;whiteSpace=wrap;html=1;" vertex="1" parent="JD7c7ZAwi3oJU7PRWthG-5">
          <mxGeometry y="60" width="160" height="50" as="geometry" />
        </mxCell>
        <mxCell id="JD7c7ZAwi3oJU7PRWthG-9" value="Specials" style="swimlane;fontStyle=1;align=center;verticalAlign=top;childLayout=stackLayout;horizontal=1;startSize=26;horizontalStack=0;resizeParent=1;resizeParentMax=0;resizeLast=0;collapsible=1;marginBottom=0;whiteSpace=wrap;html=1;" vertex="1" parent="1">
          <mxGeometry x="346" y="248" width="160" height="100" as="geometry" />
        </mxCell>
        <mxCell id="JD7c7ZAwi3oJU7PRWthG-10" value="specialsMenu: string" style="text;strokeColor=none;fillColor=none;align=left;verticalAlign=top;spacingLeft=4;spacingRight=4;overflow=hidden;rotatable=0;points=[[0,0.5],[1,0.5]];portConstraint=eastwest;whiteSpace=wrap;html=1;" vertex="1" parent="JD7c7ZAwi3oJU7PRWthG-9">
          <mxGeometry y="26" width="160" height="26" as="geometry" />
        </mxCell>
        <mxCell id="JD7c7ZAwi3oJU7PRWthG-11" value="" style="line;strokeWidth=1;fillColor=none;align=left;verticalAlign=middle;spacingTop=-1;spacingLeft=3;spacingRight=3;rotatable=0;labelPosition=right;points=[];portConstraint=eastwest;strokeColor=inherit;" vertex="1" parent="JD7c7ZAwi3oJU7PRWthG-9">
          <mxGeometry y="52" width="160" height="8" as="geometry" />
        </mxCell>
        <mxCell id="JD7c7ZAwi3oJU7PRWthG-12" value="specialsDisplay:(deals, event food, event offers); string" style="text;strokeColor=none;fillColor=none;align=left;verticalAlign=top;spacingLeft=4;spacingRight=4;overflow=hidden;rotatable=0;points=[[0,0.5],[1,0.5]];portConstraint=eastwest;whiteSpace=wrap;html=1;" vertex="1" parent="JD7c7ZAwi3oJU7PRWthG-9">
          <mxGeometry y="60" width="160" height="40" as="geometry" />
        </mxCell>
        <mxCell id="JD7c7ZAwi3oJU7PRWthG-14" value="Menu" style="swimlane;fontStyle=1;align=center;verticalAlign=top;childLayout=stackLayout;horizontal=1;startSize=26;horizontalStack=0;resizeParent=1;resizeParentMax=0;resizeLast=0;collapsible=1;marginBottom=0;whiteSpace=wrap;html=1;" vertex="1" parent="1">
          <mxGeometry x="123" y="392" width="160" height="100" as="geometry" />
        </mxCell>
        <mxCell id="JD7c7ZAwi3oJU7PRWthG-15" value="menuList: String" style="text;strokeColor=none;fillColor=none;align=left;verticalAlign=top;spacingLeft=4;spacingRight=4;overflow=hidden;rotatable=0;points=[[0,0.5],[1,0.5]];portConstraint=eastwest;whiteSpace=wrap;html=1;" vertex="1" parent="JD7c7ZAwi3oJU7PRWthG-14">
          <mxGeometry y="26" width="160" height="26" as="geometry" />
        </mxCell>
        <mxCell id="JD7c7ZAwi3oJU7PRWthG-16" value="" style="line;strokeWidth=1;fillColor=none;align=left;verticalAlign=middle;spacingTop=-1;spacingLeft=3;spacingRight=3;rotatable=0;labelPosition=right;points=[];portConstraint=eastwest;strokeColor=inherit;" vertex="1" parent="JD7c7ZAwi3oJU7PRWthG-14">
          <mxGeometry y="52" width="160" height="8" as="geometry" />
        </mxCell>
        <mxCell id="JD7c7ZAwi3oJU7PRWthG-17" value="MenuPrompt (regular or specials): string" style="text;strokeColor=none;fillColor=none;align=left;verticalAlign=top;spacingLeft=4;spacingRight=4;overflow=hidden;rotatable=0;points=[[0,0.5],[1,0.5]];portConstraint=eastwest;whiteSpace=wrap;html=1;" vertex="1" parent="JD7c7ZAwi3oJU7PRWthG-14">
          <mxGeometry y="60" width="160" height="40" as="geometry" />
        </mxCell>
        <mxCell id="JD7c7ZAwi3oJU7PRWthG-18" style="edgeStyle=none;curved=1;rounded=0;orthogonalLoop=1;jettySize=auto;html=1;exitX=0.5;exitY=0;exitDx=0;exitDy=0;entryX=0.5;entryY=0.07;entryDx=0;entryDy=0;entryPerimeter=0;fontSize=12;startSize=8;endSize=8;" edge="1" parent="1" source="JD7c7ZAwi3oJU7PRWthG-5" target="JD7c7ZAwi3oJU7PRWthG-5">
          <mxGeometry relative="1" as="geometry" />
        </mxCell>
        <mxCell id="JD7c7ZAwi3oJU7PRWthG-19" value="Stored Bookings" style="swimlane;fontStyle=1;align=center;verticalAlign=top;childLayout=stackLayout;horizontal=1;startSize=26;horizontalStack=0;resizeParent=1;resizeParentMax=0;resizeLast=0;collapsible=1;marginBottom=0;whiteSpace=wrap;html=1;" vertex="1" parent="1">
          <mxGeometry x="617" y="333" width="160" height="100" as="geometry" />
        </mxCell>
        <mxCell id="JD7c7ZAwi3oJU7PRWthG-20" value="Booking BD: boolean" style="text;strokeColor=none;fillColor=none;align=left;verticalAlign=top;spacingLeft=4;spacingRight=4;overflow=hidden;rotatable=0;points=[[0,0.5],[1,0.5]];portConstraint=eastwest;whiteSpace=wrap;html=1;" vertex="1" parent="JD7c7ZAwi3oJU7PRWthG-19">
          <mxGeometry y="26" width="160" height="26" as="geometry" />
        </mxCell>
        <mxCell id="JD7c7ZAwi3oJU7PRWthG-21" value="" style="line;strokeWidth=1;fillColor=none;align=left;verticalAlign=middle;spacingTop=-1;spacingLeft=3;spacingRight=3;rotatable=0;labelPosition=right;points=[];portConstraint=eastwest;strokeColor=inherit;" vertex="1" parent="JD7c7ZAwi3oJU7PRWthG-19">
          <mxGeometry y="52" width="160" height="8" as="geometry" />
        </mxCell>
        <mxCell id="JD7c7ZAwi3oJU7PRWthG-22" value="Booking ID: Boolean&lt;div&gt;selected order: string&lt;/div&gt;" style="text;strokeColor=none;fillColor=none;align=left;verticalAlign=top;spacingLeft=4;spacingRight=4;overflow=hidden;rotatable=0;points=[[0,0.5],[1,0.5]];portConstraint=eastwest;whiteSpace=wrap;html=1;" vertex="1" parent="JD7c7ZAwi3oJU7PRWthG-19">
          <mxGeometry y="60" width="160" height="40" as="geometry" />
        </mxCell>
        <mxCell id="JD7c7ZAwi3oJU7PRWthG-23" value="" style="endArrow=open;html=1;endSize=12;startArrow=diamondThin;startSize=14;startFill=0;edgeStyle=orthogonalEdgeStyle;align=left;verticalAlign=bottom;rounded=0;fontSize=12;curved=1;exitX=0.988;exitY=0.375;exitDx=0;exitDy=0;exitPerimeter=0;entryX=0;entryY=0.5;entryDx=0;entryDy=0;" edge="1" parent="1" source="JD7c7ZAwi3oJU7PRWthG-3" target="JD7c7ZAwi3oJU7PRWthG-15">
          <mxGeometry x="-1" y="3" relative="1" as="geometry">
            <mxPoint x="32" y="400" as="sourcePoint" />
            <mxPoint x="192" y="400" as="targetPoint" />
          </mxGeometry>
        </mxCell>
        <mxCell id="JD7c7ZAwi3oJU7PRWthG-24" value="" style="endArrow=block;endFill=1;html=1;edgeStyle=orthogonalEdgeStyle;align=left;verticalAlign=top;rounded=0;fontSize=12;startSize=8;endSize=8;curved=1;exitX=1;exitY=0.5;exitDx=0;exitDy=0;entryX=0.013;entryY=0.808;entryDx=0;entryDy=0;entryPerimeter=0;" edge="1" parent="1" source="JD7c7ZAwi3oJU7PRWthG-15" target="JD7c7ZAwi3oJU7PRWthG-10">
          <mxGeometry x="-1" relative="1" as="geometry">
            <mxPoint x="32" y="400" as="sourcePoint" />
            <mxPoint x="192" y="400" as="targetPoint" />
          </mxGeometry>
        </mxCell>
        <mxCell id="JD7c7ZAwi3oJU7PRWthG-29" value="" style="endArrow=classic;html=1;rounded=0;fontSize=12;startSize=8;endSize=8;curved=1;" edge="1" parent="1" target="JD7c7ZAwi3oJU7PRWthG-6">
          <mxGeometry width="50" height="50" relative="1" as="geometry">
            <mxPoint x="281" y="433" as="sourcePoint" />
            <mxPoint x="137" y="375" as="targetPoint" />
          </mxGeometry>
        </mxCell>
        <mxCell id="JD7c7ZAwi3oJU7PRWthG-30" value="" style="endArrow=block;endFill=1;html=1;edgeStyle=orthogonalEdgeStyle;align=left;verticalAlign=top;rounded=0;fontSize=12;startSize=8;endSize=8;curved=1;exitX=1;exitY=0.5;exitDx=0;exitDy=0;entryX=0;entryY=0.5;entryDx=0;entryDy=0;" edge="1" parent="1" source="JD7c7ZAwi3oJU7PRWthG-10" target="JD7c7ZAwi3oJU7PRWthG-20">
          <mxGeometry x="-1" relative="1" as="geometry">
            <mxPoint x="367" y="400" as="sourcePoint" />
            <mxPoint x="527" y="400" as="targetPoint" />
          </mxGeometry>
        </mxCell>
        <mxCell id="JD7c7ZAwi3oJU7PRWthG-34" value="" style="endArrow=block;endFill=1;html=1;edgeStyle=orthogonalEdgeStyle;align=left;verticalAlign=top;rounded=0;fontSize=12;startSize=8;endSize=8;curved=1;entryX=0;entryY=0.5;entryDx=0;entryDy=0;" edge="1" parent="1" source="JD7c7ZAwi3oJU7PRWthG-6" target="JD7c7ZAwi3oJU7PRWthG-20">
          <mxGeometry x="-1" relative="1" as="geometry">
            <mxPoint x="367" y="400" as="sourcePoint" />
            <mxPoint x="527" y="400" as="targetPoint" />
          </mxGeometry>
        </mxCell>
      </root>
    </mxGraphModel>
  </diagram>
</mxfile>
